<svg width="70" height="70" viewBox="0 0 70 70" fill="none" xmlns="http://www.w3.org/2000/svg">
<circle cx="35" cy="35" r="30" fill="#4C4269" fill-opacity="0.25"/>
<circle cx="35" cy="35" r="30" stroke="#916FF1" stroke-width="1.5" stroke-opacity="0.6"/>
<path d="M26.9341 19.7143H24.956C23.9068 19.7143 22.9006 20.1866 22.1587 21.0275C21.4168 21.8683 21 23.0087 21 24.1978V44.3736C21 45.5627 21.4168 46.7031 22.1587 47.5439C22.9006 48.3848 23.9068 48.8571 24.956 48.8571H42.7582C43.8075 48.8571 44.8137 48.3848 45.5556 47.5439C46.2975 46.7031 46.7143 45.5627 46.7143 44.3736V42.1319" stroke="#C0AAFF" stroke-width="3.5" stroke-linecap="round" stroke-linejoin="round"/>
<path d="M39.8571 21.4288L45 26.5716M47.3743 24.1459C48.0494 23.4707 48.4287 22.555 48.4287 21.6002C48.4287 20.6454 48.0494 19.7296 47.3743 19.0545C46.6991 18.3793 45.7834 18 44.8285 18C43.8737 18 42.958 18.3793 42.2828 19.0545L27.8571 33.4288V38.5716H33L47.3743 24.1459Z" stroke="#C0AAFF" stroke-width="3.5" stroke-linecap="round" stroke-linejoin="round"/>
</svg>