<svg width="89" height="89" viewBox="0 0 89 89" fill="none" xmlns="http://www.w3.org/2000/svg">
  <rect x="9.3" y="9.3" width="70" height="70" rx="6" fill="#D9D9D9" fill-opacity="0.2"/>
  <rect x="9.8" y="9.8" width="69" height="69" rx="5.5" stroke="#916FF1"/>
  <path d="M62.0482 68.2445H27.551C27.2099 68.2465 26.8718 68.1813 26.5559 68.0526C26.24 67.924 25.9526 67.7343 25.71 67.4946C25.4674 67.2548 25.2744 66.9696 25.142 66.6553C25.0096 66.3409 24.9405 66.0036 24.9385 65.6625V26.5209C24.9475 26.1429 25.0367 25.7712 25.1999 25.4302C25.3632 25.0893 25.5969 24.7868 25.8857 24.5428C26.1744 24.2988 26.5117 24.1188 26.8751 24.0147C27.2385 23.9106 27.6199 23.8848 27.994 23.9389H31.0496V26.9945H27.994V65.1889H61.6051V26.9945H58.5496V23.9389H61.9871C62.3333 23.9287 62.678 23.9879 63.0009 24.1129C63.3239 24.2379 63.6186 24.4262 63.8677 24.6667C64.1168 24.9073 64.3153 25.1953 64.4515 25.5137C64.5877 25.8321 64.6588 26.1745 64.6607 26.5209V65.6625C64.6587 66.0036 64.5895 66.3409 64.4572 66.6553C64.3248 66.9696 64.1318 67.2548 63.8892 67.4946C63.6466 67.7343 63.3592 67.924 63.0433 68.0526C62.7274 68.1813 62.3893 68.2465 62.0482 68.2445Z" fill="#C0AAFF"/>
  <path d="M42.7527 55.6556L34.5638 47.4667C34.3154 47.1727 34.1872 46.7958 34.2047 46.4113C34.2222 46.0268 34.3842 45.6631 34.6583 45.3929C34.9324 45.1227 35.2983 44.9659 35.683 44.9538C36.0677 44.9417 36.4428 45.0753 36.7332 45.3278L42.7527 51.3473L55.9527 38.1473C56.2449 37.897 56.6209 37.7662 57.0054 37.781C57.3899 37.7959 57.7546 37.9553 58.0267 38.2274C58.2988 38.4995 58.4582 38.8642 58.4731 39.2487C58.4879 39.6332 58.3571 40.0092 58.1068 40.3014L42.7527 55.6556Z" fill="#C0AAFF"/>
  <path d="M57.0221 33.1056H32.5776V27.4987C32.5817 26.5558 32.958 25.6527 33.6247 24.986C34.2914 24.3193 35.1945 23.943 36.1374 23.9389H38.8721C39.2087 22.6244 39.9732 21.4593 41.0451 20.6273C42.117 19.7952 43.4353 19.3436 44.7922 19.3436C46.1491 19.3436 47.4675 19.7952 48.5394 20.6273C49.6113 21.4593 50.3758 22.6244 50.7124 23.9389H53.4471C54.3926 23.9389 55.2996 24.3135 55.9696 24.9806C56.6396 25.6478 57.018 26.5532 57.0221 27.4987V33.1056ZM35.6332 30.0501H53.9665V27.4987C53.9665 27.365 53.9134 27.2367 53.8189 27.1422C53.7243 27.0476 53.5961 26.9945 53.4624 26.9945H47.8554V25.4667C47.8554 24.6563 47.5335 23.8791 46.9605 23.3061C46.3874 22.7331 45.6102 22.4112 44.7999 22.4112C43.9895 22.4112 43.2123 22.7331 42.6393 23.3061C42.0662 23.8791 41.7443 24.6563 41.7443 25.4667V26.9945H36.1374C36.0712 26.9945 36.0056 27.0075 35.9444 27.0329C35.8833 27.0582 35.8277 27.0954 35.7809 27.1422C35.734 27.189 35.6969 27.2446 35.6716 27.3057C35.6462 27.3669 35.6332 27.4325 35.6332 27.4987V30.0501Z" fill="#C0AAFF"/>
</svg>