<svg width="57" height="57" viewBox="0 0 57 57" fill="none" xmlns="http://www.w3.org/2000/svg">
<path d="M46.6667 46.6702V35.2119H35.2083M10 10.0035V21.4619H21.4583M46.5246 26.0452C46.0449 22.2351 44.381 18.6718 41.7677 15.8579C39.1543 13.0441 35.7235 11.1218 31.9592 10.3622C28.1948 9.60269 24.287 10.0442 20.7871 11.6245C17.2871 13.2049 14.3717 15.8442 12.4521 19.1702M10.1421 30.6285C10.6218 34.4387 12.2857 38.002 14.899 40.8158C17.5123 43.6297 20.9432 45.552 24.7075 46.3115C28.4718 47.0711 32.3796 46.6295 35.8796 45.0492C39.3795 43.4689 42.295 40.8295 44.2146 37.5035" stroke="#916FF1" stroke-width="4.58333" stroke-linecap="round" stroke-linejoin="round"/>
</svg>
