<svg width="89" height="89" viewBox="0 0 89 89" fill="none" xmlns="http://www.w3.org/2000/svg">
  <rect x="9.3" y="9.3" width="70" height="70" rx="6" fill="#D9D9D9" fill-opacity="0.2"/>
  <rect x="9.8" y="9.8" width="69" height="69" rx="5.5" stroke="#916FF1"/>
  <circle cx="44.8" cy="43.8" r="8.75" stroke="#C0AAFF" stroke-width="3"/>
  <path d="M20.4767 40.06C21.8564 40.874 22.7431 42.2655 22.7431 43.8C22.7431 45.3345 21.8564 46.726 20.4767 47.54C19.5404 48.0983 18.9337 48.541 18.505 49.069C18.0386 49.6422 17.6965 50.2965 17.4983 50.9943C17.3001 51.6922 17.2497 52.4201 17.3499 53.1363C17.5016 54.2198 18.1812 55.3308 19.5375 57.55C20.8997 59.7693 21.5793 60.8775 22.4981 61.5458C23.106 61.9855 23.7999 62.3081 24.5401 62.4949C25.2803 62.6818 26.0523 62.7293 26.812 62.6348C27.512 62.5468 28.2208 62.2773 29.2008 61.7878C29.9025 61.4267 30.6898 61.2393 31.4891 61.2431C32.2885 61.2469 33.0738 61.4419 33.7714 61.8098C35.1802 62.5798 36.0174 63.996 36.0757 65.5306C36.1165 66.5755 36.2215 67.2905 36.4928 67.9038C36.786 68.5716 37.2159 69.1783 37.7579 69.6893C38.2999 70.2003 38.9434 70.6056 39.6517 70.882C40.7221 71.3 42.0814 71.3 44.7998 71.3C47.5183 71.3 48.8775 71.3 49.9479 70.882C50.6562 70.6056 51.2997 70.2003 51.8417 69.6893C52.3838 69.1783 52.8136 68.5716 53.1068 67.9038C53.3752 67.2905 53.4831 66.5755 53.5239 65.5306C53.5822 63.996 54.4194 62.577 55.8282 61.8098C56.5259 61.4419 57.3111 61.2469 58.1105 61.2431C58.9098 61.2393 59.6972 61.4267 60.3988 61.7878C61.3788 62.2773 62.0905 62.5468 62.7905 62.6348C64.3238 62.8249 65.8745 62.4332 67.1016 61.5458C68.0203 60.8803 68.7 59.7693 70.0592 57.55C70.6659 56.56 71.1355 55.7928 71.4855 55.1493M69.1229 47.5428C68.4406 47.1509 67.8748 46.6023 67.4784 45.9482C67.0821 45.2941 66.8681 44.556 66.8565 43.8028C66.8565 42.2655 67.7432 40.874 69.1229 40.0573C70.0592 39.5018 70.6629 39.059 71.0946 38.531C71.5611 37.9578 71.9031 37.3036 72.1013 36.6058C72.2995 35.9079 72.3499 35.18 72.2497 34.4638C72.098 33.3803 71.4184 32.2693 70.0621 30.05C68.7 27.8308 68.0203 26.7225 67.1016 26.0543C66.4936 25.6145 65.7997 25.292 65.0595 25.1052C64.3193 24.9183 63.5473 24.8708 62.7876 24.9653C62.0876 25.0533 61.3788 25.3228 60.3959 25.8123C59.6946 26.1729 58.9078 26.3601 58.109 26.3562C57.3102 26.3524 56.5255 26.1577 55.8282 25.7903C55.1417 25.4045 54.5702 24.8607 54.1672 24.21C53.7642 23.5593 53.5429 22.8229 53.5239 22.0695C53.4831 21.0245 53.3781 20.3095 53.1068 19.6963C52.8136 19.0285 52.3838 18.4218 51.8417 17.9108C51.2997 17.3998 50.6562 16.9945 49.9479 16.718C48.8775 16.3 47.5183 16.3 44.7998 16.3C42.0814 16.3 40.7221 16.3 39.6517 16.718C38.9434 16.9945 38.2999 17.3998 37.7579 17.9108C37.2159 18.4218 36.786 19.0285 36.4928 19.6963C36.2245 20.3095 36.1165 21.0245 36.0757 22.0695C36.0567 22.8229 35.8354 23.5593 35.4324 24.21C35.0294 24.8607 34.4579 25.4045 33.7714 25.7903C33.0738 26.1582 32.2885 26.3531 31.4891 26.357C30.6898 26.3608 29.9025 26.1734 29.2008 25.8123C28.2208 25.3228 27.5091 25.0533 26.8091 24.9653C25.2758 24.7752 23.7251 25.1669 22.4981 26.0543C21.5822 26.7225 20.8997 27.8308 19.5404 30.05C18.9337 31.04 18.4641 31.8073 18.1141 32.4508"
    stroke="#C0AAFF" stroke-width="3" stroke-linecap="round"/>
</svg>