<svg width="80" height="80" viewBox="0 0 80 80" fill="none" xmlns="http://www.w3.org/2000/svg">
<g filter="url(#filter0_d_4384_163)">
<rect x="5" y="5" width="70" height="70" rx="35" fill="#4C4269" fill-opacity="0.2" shape-rendering="crispEdges"/>
<g filter="url(#filter1_dd_4384_163)">
<path d="M49.4161 37.6L48.9307 39.8H43.3486C43.0267 39.8 42.7181 39.9159 42.4905 40.1222C42.2629 40.3285 42.1351 40.6083 42.1351 40.9C42.1351 41.1917 42.2629 41.4715 42.4905 41.6778C42.7181 41.8841 43.0267 42 43.3486 42H48.4453L46.0183 53H40.9216C40.5997 53 40.2911 53.1159 40.0635 53.3222C39.8359 53.5285 39.7081 53.8083 39.7081 54.1C39.7081 54.3917 39.8359 54.6715 40.0635 54.8778C40.2911 55.0841 40.5997 55.2 40.9216 55.2H45.5329L44.5621 59.6C44.5621 60.767 44.0507 61.8861 43.1404 62.7113C42.2301 63.5364 40.9954 64 39.7081 64C38.4207 64 37.1861 63.5364 36.2757 62.7113C35.3654 61.8861 34.854 60.767 34.854 59.6L32.427 48.6H36.0675C36.3894 48.6 36.698 48.4841 36.9256 48.2778C37.1532 48.0715 37.281 47.7917 37.281 47.5C37.281 47.2083 37.1532 46.9285 36.9256 46.7222C36.698 46.5159 36.3894 46.4 36.0675 46.4H31.9416L30 37.6C30 34.96 32.2571 32.694 35.5579 31.638L32.1843 27.216C32.0033 26.9779 31.876 26.7098 31.8098 26.427C31.7435 26.1441 31.7396 25.8522 31.7982 25.568C31.8569 25.2838 31.9769 25.013 32.1515 24.771C32.326 24.529 32.5516 24.3207 32.8153 24.158C33.3434 23.8262 33.9951 23.6978 34.6275 23.8009C35.2599 23.904 35.8214 24.2302 36.1889 24.708L37.281 26.16V22.2C37.281 21.6165 37.5368 21.0569 37.9919 20.6444C38.4471 20.2318 39.0644 20 39.7081 20C40.3517 20 40.9691 20.2318 41.4242 20.6444C41.8794 21.0569 42.1351 21.6165 42.1351 22.2V27.216L45.7756 23.388C46.5765 22.464 48.1298 22.354 49.1492 23.146C50.1685 23.916 50.2899 25.302 49.4161 26.248L44.2466 31.77C47.3289 32.87 49.4161 35.07 49.4161 37.6Z" fill="#C1AAFF"/>
</g>
</g>
<defs>
<filter id="filter0_d_4384_163" x="0" y="0" width="80" height="80" filterUnits="userSpaceOnUse" color-interpolation-filters="sRGB">
<feFlood flood-opacity="0" result="BackgroundImageFix"/>
<feColorMatrix in="SourceAlpha" type="matrix" values="0 0 0 0 0 0 0 0 0 0 0 0 0 0 0 0 0 0 127 0" result="hardAlpha"/>
<feOffset/>
<feGaussianBlur stdDeviation="2.5"/>
<feComposite in2="hardAlpha" operator="out"/>
<feColorMatrix type="matrix" values="0 0 0 0 0.568627 0 0 0 0 0.435294 0 0 0 0 0.945098 0 0 0 1 0"/>
<feBlend mode="normal" in2="BackgroundImageFix" result="effect1_dropShadow_4384_163"/>
<feBlend mode="normal" in="BackgroundImageFix" in2="effect1_dropShadow_4384_163" result="BackgroundImageFix"/>
<feBlend mode="normal" in="SourceGraphic" in2="BackgroundImageFix" result="shape"/>
</filter>
<filter id="filter1_dd_4384_163" x="26" y="20" width="28" height="52" filterUnits="userSpaceOnUse" color-interpolation-filters="sRGB">
<feFlood flood-opacity="0" result="BackgroundImageFix"/>
<feColorMatrix in="SourceAlpha" type="matrix" values="0 0 0 0 0 0 0 0 0 0 0 0 0 0 0 0 0 0 127 0" result="hardAlpha"/>
<feOffset dy="4"/>
<feGaussianBlur stdDeviation="2"/>
<feComposite in2="hardAlpha" operator="out"/>
<feColorMatrix type="matrix" values="0 0 0 0 0 0 0 0 0 0 0 0 0 0 0 0 0 0 0.25 0"/>
<feBlend mode="normal" in2="BackgroundImageFix" result="effect1_dropShadow_4384_163"/>
<feColorMatrix in="SourceAlpha" type="matrix" values="0 0 0 0 0 0 0 0 0 0 0 0 0 0 0 0 0 0 127 0" result="hardAlpha"/>
<feOffset dy="4"/>
<feGaussianBlur stdDeviation="2"/>
<feComposite in2="hardAlpha" operator="out"/>
<feColorMatrix type="matrix" values="0 0 0 0 0 0 0 0 0 0 0 0 0 0 0 0 0 0 0.25 0"/>
<feBlend mode="normal" in2="effect1_dropShadow_4384_163" result="effect2_dropShadow_4384_163"/>
<feBlend mode="normal" in="SourceGraphic" in2="effect2_dropShadow_4384_163" result="shape"/>
</filter>
</defs>
</svg>
